<svg xmlns="http://www.w3.org/2000/svg" viewBox="0 0 64 64" fill="none">
  <defs>
    <linearGradient id="receiptBg" x1="0%" y1="0%" x2="100%" y2="100%">
      <stop offset="0%" style="stop-color:#60A5FA"/>
      <stop offset="100%" style="stop-color:#3B82F6"/>
    </linearGradient>
    <linearGradient id="receiptShadow" x1="0%" y1="0%" x2="0%" y2="100%">
      <stop offset="0%" style="stop-color:#2563EB"/>
      <stop offset="100%" style="stop-color:#1D4ED8"/>
    </linearGradient>
    <filter id="receiptDrop" x="-20%" y="-20%" width="140%" height="140%">
      <feDropShadow dx="0" dy="4" stdDeviation="3" flood-color="#1E40AF" flood-opacity="0.3"/>
    </filter>
  </defs>
  <!-- Shadow layer -->
  <path d="M18 8h28a4 4 0 014 4v40l-6-4-6 4-6-4-6 4-6-4-6 4V12a4 4 0 014-4z" fill="url(#receiptShadow)" transform="translate(2, 4)" opacity="0.4"/>
  <!-- Main receipt -->
  <path d="M18 8h28a4 4 0 014 4v40l-6-4-6 4-6-4-6 4-6-4-6 4V12a4 4 0 014-4z" fill="url(#receiptBg)" filter="url(#receiptDrop)"/>
  <!-- Lines -->
  <rect x="22" y="18" width="20" height="3" rx="1.5" fill="white" opacity="0.9"/>
  <rect x="22" y="26" width="16" height="2" rx="1" fill="white" opacity="0.6"/>
  <rect x="22" y="32" width="18" height="2" rx="1" fill="white" opacity="0.6"/>
  <rect x="22" y="38" width="14" height="2" rx="1" fill="white" opacity="0.6"/>
  <!-- Highlight -->
  <path d="M18 8h28a4 4 0 014 4v4H14v-4a4 4 0 014-4z" fill="white" opacity="0.2"/>
</svg>
